<svg width="32" height="32" viewBox="0 0 32 32" fill="none" xmlns="http://www.w3.org/2000/svg">
<g clip-path="url(#clip0_13201_36923)">
<path d="M13.3333 16.0007C16.28 16.0007 18.6667 13.614 18.6667 10.6673C18.6667 7.72065 16.28 5.33398 13.3333 5.33398C10.3867 5.33398 8 7.72065 8 10.6673C8 13.614 10.3867 16.0007 13.3333 16.0007ZM13.3333 8.00065C14.8 8.00065 16 9.20065 16 10.6673C16 12.134 14.8 13.334 13.3333 13.334C11.8667 13.334 10.6667 12.134 10.6667 10.6673C10.6667 9.20065 11.8667 8.00065 13.3333 8.00065Z" fill="#FAFAFA"/>
<path d="M5.33333 24.0007C5.62666 23.0407 9.74666 21.334 13.3333 21.334C13.3333 20.4007 13.5067 19.5073 13.8 18.6807C10.16 18.5473 2.66666 20.3607 2.66666 24.0007V26.6673H15.3867C14.6933 25.894 14.1467 25.0007 13.8 24.0007H5.33333Z" fill="#FAFAFA"/>
</g>
<path d="M22.7135 24.1291L22.4675 24.6951C22.4291 24.7872 22.3642 24.866 22.2811 24.9214C22.198 24.9767 22.1004 25.0063 22.0005 25.0063C21.9006 25.0063 21.803 24.9767 21.7199 24.9214C21.6368 24.866 21.572 24.7872 21.5335 24.6951L21.2875 24.1291C20.855 23.1278 20.0629 22.325 19.0675 21.8791L18.3085 21.5401C18.2164 21.4977 18.1384 21.4299 18.0837 21.3445C18.0291 21.2592 18 21.1599 18 21.0586C18 20.9572 18.0291 20.858 18.0837 20.7727C18.1384 20.6873 18.2164 20.6194 18.3085 20.5771L19.0255 20.2581C20.0459 19.7995 20.8516 18.967 21.2765 17.9321L21.5295 17.3211C21.5667 17.2264 21.6315 17.1452 21.7155 17.0879C21.7995 17.0306 21.8988 17 22.0005 17C22.1022 17 22.2015 17.0306 22.2855 17.0879C22.3695 17.1452 22.4344 17.2264 22.4715 17.3211L22.7245 17.9311C23.149 18.9662 23.9543 19.799 24.9745 20.2581L25.6925 20.5781C25.7843 20.6206 25.862 20.6884 25.9165 20.7737C25.971 20.8589 25.9999 20.9579 25.9999 21.0591C25.9999 21.1602 25.971 21.2593 25.9165 21.3445C25.862 21.4297 25.7843 21.4976 25.6925 21.5401L24.9325 21.8781C23.9373 22.3244 23.1456 23.1276 22.7135 24.1291Z" fill="#FAFAFA"/>
<defs>
<clipPath id="clip0_13201_36923">
<rect width="32" height="32" fill="white"/>
</clipPath>
</defs>
</svg>
