<svg width="24" height="24" viewBox="0 0 24 24" fill="none" xmlns="http://www.w3.org/2000/svg">
<path d="M20.713 8.12713L20.467 8.69313C20.4286 8.78529 20.3637 8.86402 20.2806 8.9194C20.1975 8.97478 20.0999 9.00433 20 9.00433C19.9001 9.00433 19.8025 8.97478 19.7194 8.9194C19.6363 8.86402 19.5714 8.78529 19.533 8.69313L19.287 8.12713C18.8545 7.12585 18.0624 6.32305 17.067 5.87713L16.308 5.53813C16.2159 5.49577 16.1379 5.4279 16.0832 5.34256C16.0286 5.25722 15.9995 5.15798 15.9995 5.05663C15.9995 4.95527 16.0286 4.85604 16.0832 4.7707C16.1379 4.68536 16.2159 4.61749 16.308 4.57513L17.025 4.25613C18.0454 3.79751 18.8511 2.96501 19.276 1.93013L19.529 1.31913C19.5662 1.22448 19.631 1.14323 19.715 1.08595C19.799 1.02868 19.8983 0.998047 20 0.998047C20.1017 0.998047 20.201 1.02868 20.285 1.08595C20.369 1.14323 20.4338 1.22448 20.471 1.31913L20.724 1.92913C21.1485 2.9642 21.9538 3.79706 22.974 4.25613L23.692 4.57613C23.7838 4.61861 23.8615 4.68647 23.916 4.7717C23.9705 4.85693 23.9994 4.95597 23.9994 5.05713C23.9994 5.15828 23.9705 5.25732 23.916 5.34255C23.8615 5.42779 23.7838 5.49565 23.692 5.53813L22.932 5.87613C21.9368 6.32249 21.1451 7.12565 20.713 8.12713ZM10 2.99913H14V4.99913H10C8.4087 4.99913 6.88258 5.63127 5.75736 6.75649C4.63214 7.88171 4 9.40783 4 10.9991C4 14.6091 6.462 16.9651 12 19.4791V16.9991H14C15.5913 16.9991 17.1174 16.367 18.2426 15.2418C19.3679 14.1166 20 12.5904 20 10.9991H22C22 13.1209 21.1571 15.1557 19.6569 16.656C18.1566 18.1563 16.1217 18.9991 14 18.9991V22.4991C9 20.4991 2 17.4991 2 10.9991C2 8.8774 2.84285 6.84256 4.34315 5.34227C5.84344 3.84198 7.87827 2.99913 10 2.99913Z" fill="#FAFAFA"/>
</svg>
