<svg width="24" height="24" viewBox="0 0 24 24" fill="none" xmlns="http://www.w3.org/2000/svg">
<path d="M8.72851 15.7548C8.95336 15.9144 9.22212 16.0005 9.49788 16.0013C9.77363 16.002 10.0428 15.9173 10.2685 15.7588C10.4705 15.6148 10.6295 15.4178 10.7265 15.1893L11.3445 13.3048C11.4957 12.8506 11.7506 12.4379 12.0891 12.0994C12.4276 11.7609 12.8403 11.506 13.2945 11.3548L15.11 10.7633C15.3705 10.6714 15.5961 10.501 15.7557 10.2755C15.9153 10.05 16.001 9.78057 16.001 9.50432C16.001 9.22807 15.9153 8.95862 15.7557 8.73312C15.5961 8.50763 15.3705 8.33719 15.11 8.24532L13.26 7.64882C12.8073 7.49726 12.3958 7.24285 12.0579 6.90556C11.72 6.56828 11.4649 6.15728 11.3125 5.70482L10.723 3.89032C10.6313 3.62969 10.4608 3.40407 10.235 3.24482C10.0084 3.08795 9.73936 3.00391 9.46376 3.00391C9.18816 3.00391 8.91911 3.08795 8.69251 3.24482C8.46277 3.40751 8.2901 3.63844 8.19901 3.90482L7.60251 5.73832C7.45097 6.17926 7.20146 6.58011 6.87272 6.91076C6.54398 7.2414 6.14457 7.49323 5.70451 7.64732L3.89101 8.23632C3.6291 8.32858 3.40248 8.50022 3.2427 8.72733C3.08293 8.95444 2.99795 9.22573 2.9996 9.50341C3.00125 9.78109 3.08945 10.0513 3.25191 10.2765C3.41438 10.5017 3.64302 10.6707 3.90601 10.7598L5.69951 11.3423C6.15388 11.4949 6.56662 11.7509 6.90518 12.0901C7.24375 12.4294 7.49889 12.8426 7.65051 13.2973L8.24051 15.1088C8.33201 15.3693 8.50301 15.5953 8.72851 15.7548ZM16.437 20.3208C16.6013 20.4372 16.7976 20.5 16.999 20.5003L17.0015 20.5018C17.2053 20.5014 17.4039 20.4371 17.5692 20.318C17.7346 20.1989 17.8585 20.031 17.9235 19.8378L18.208 18.9628C18.2663 18.7882 18.3644 18.6295 18.4944 18.4992C18.6245 18.3688 18.783 18.2705 18.9575 18.2118L19.8525 17.9208C19.9943 17.8707 20.1225 17.7884 20.2271 17.6803C20.3317 17.5723 20.4098 17.4415 20.4553 17.2982C20.5009 17.1549 20.5126 17.003 20.4895 16.8544C20.4665 16.7058 20.4093 16.5646 20.3225 16.4418C20.199 16.2689 20.0227 16.1408 19.82 16.0768L18.9415 15.7923C18.767 15.7338 18.6085 15.6356 18.4783 15.5055C18.3482 15.3754 18.25 15.2168 18.1915 15.0423L17.9005 14.1478C17.8334 13.9565 17.7081 13.791 17.5422 13.6744C17.3763 13.5578 17.1781 13.496 16.9754 13.4976C16.7726 13.4993 16.5755 13.5643 16.4115 13.6836C16.2476 13.8029 16.125 13.9704 16.061 14.1628L15.775 15.0413C15.7182 15.2132 15.6229 15.3699 15.4964 15.4995C15.3699 15.629 15.2155 15.728 15.045 15.7888L14.15 16.0798C13.9588 16.1469 13.7933 16.272 13.6768 16.4378C13.5602 16.6036 13.4984 16.8016 13.5 17.0042C13.5016 17.2069 13.5665 17.4039 13.6857 17.5678C13.8048 17.7317 13.9723 17.8543 14.1645 17.9183L15.0405 18.2033C15.2155 18.2618 15.3745 18.3603 15.5047 18.491C15.6349 18.6217 15.7328 18.7811 15.7905 18.9563L16.0815 19.8503C16.1485 20.0403 16.273 20.2048 16.437 20.3208Z" fill="#1DC558"/>
</svg>
