<svg width="24" height="24" viewBox="0 0 24 24" fill="none" xmlns="http://www.w3.org/2000/svg">
<g clip-path="url(#clip0_13263_3173)">
<path d="M9.37027 12.5153C8.87527 12.3503 8.87527 11.6513 9.37027 11.4863L12.2758 10.5188C12.9145 10.3058 13.4948 9.94701 13.9707 9.47081C14.4467 8.99461 14.8052 8.41409 15.0178 7.77527L15.9853 4.87127C16.1503 4.37627 16.8493 4.37627 17.0143 4.87127L17.9818 7.77677C18.1947 8.41547 18.5535 8.99579 19.0297 9.47174C19.5059 9.94768 20.0864 10.3062 20.7253 10.5188L23.6293 11.4863C23.7377 11.5218 23.832 11.5907 23.899 11.6831C23.9659 11.7755 24.0019 11.8867 24.0019 12.0008C24.0019 12.1149 23.9659 12.226 23.899 12.3184C23.832 12.4108 23.7377 12.4797 23.6293 12.5153L20.7238 13.4828C20.0852 13.6956 19.505 14.0541 19.0291 14.5301C18.5531 15.006 18.1946 15.5862 17.9818 16.2248L17.0143 19.1303C16.9787 19.2387 16.9098 19.3331 16.8174 19.4C16.725 19.4669 16.6138 19.5029 16.4998 19.5029C16.3857 19.5029 16.2745 19.4669 16.1821 19.4C16.0897 19.3331 16.0208 19.2387 15.9853 19.1303L15.0178 16.2248C14.805 15.5862 14.4464 15.006 13.9705 14.5301C13.4945 14.0542 12.9143 13.6956 12.2758 13.4828L9.37027 12.5153ZM1.72177 18.3098C1.65681 18.2883 1.60028 18.2468 1.56022 18.1914C1.52015 18.1359 1.49859 18.0692 1.49859 18.0008C1.49859 17.9323 1.52015 17.8657 1.56022 17.8102C1.60028 17.7547 1.65681 17.7133 1.72177 17.6918L3.46477 17.1113C4.24177 16.8518 4.85077 16.2428 5.11027 15.4658L5.69077 13.7228C5.71228 13.6578 5.75371 13.6013 5.80918 13.5612C5.86465 13.5212 5.93134 13.4996 5.99977 13.4996C6.0682 13.4996 6.13488 13.5212 6.19035 13.5612C6.24582 13.6013 6.28726 13.6578 6.30877 13.7228L6.88927 15.4658C7.01694 15.849 7.23211 16.1972 7.51773 16.4828C7.80335 16.7684 8.15156 16.9836 8.53477 17.1113L10.2778 17.6918C10.3427 17.7133 10.3993 17.7547 10.4393 17.8102C10.4794 17.8657 10.5009 17.9323 10.5009 18.0008C10.5009 18.0692 10.4794 18.1359 10.4393 18.1914C10.3993 18.2468 10.3427 18.2883 10.2778 18.3098L8.53477 18.8903C8.15156 19.0179 7.80335 19.2331 7.51773 19.5187C7.23211 19.8043 7.01694 20.1526 6.88927 20.5358L6.30877 22.2788C6.28726 22.3437 6.24582 22.4003 6.19035 22.4403C6.13488 22.4804 6.0682 22.502 5.99977 22.502C5.93134 22.502 5.86466 22.4804 5.80918 22.4403C5.75371 22.4003 5.71228 22.3437 5.69077 22.2788L5.11027 20.5358C4.98259 20.1526 4.76742 19.8044 4.48181 19.5187C4.19619 19.2331 3.84798 19.0179 3.46477 18.8903L1.72177 18.3098ZM0.148269 7.70627C0.105558 7.69147 0.0685224 7.66372 0.0423109 7.62689C0.0160994 7.59006 0.00201456 7.54598 0.00201455 7.50077C0.00201455 7.45557 0.0160994 7.41149 0.0423109 7.37466C0.0685224 7.33783 0.105558 7.31008 0.148268 7.29527L1.30927 6.90827C1.82827 6.73577 2.23477 6.32927 2.40727 5.81027L2.79427 4.64927C2.80908 4.60656 2.83682 4.56953 2.87365 4.54331C2.91048 4.5171 2.95456 4.50302 2.99977 4.50302C3.04497 4.50302 3.08905 4.5171 3.12588 4.54331C3.16271 4.56953 3.19046 4.60656 3.20527 4.64927L3.59227 5.81027C3.67735 6.06604 3.82089 6.29845 4.01149 6.48905C4.20209 6.67965 4.4345 6.82319 4.69027 6.90827L5.85127 7.29527C5.89398 7.31008 5.93101 7.33783 5.95723 7.37466C5.98344 7.41149 5.99752 7.45557 5.99752 7.50077C5.99752 7.54598 5.98344 7.59006 5.95723 7.62689C5.93101 7.66372 5.89398 7.69147 5.85127 7.70627L4.69027 8.09327C4.4345 8.17836 4.20209 8.3219 4.01149 8.5125C3.82089 8.7031 3.67735 8.9355 3.59227 9.19127L3.20527 10.3508C3.19046 10.3935 3.16271 10.4305 3.12588 10.4567C3.08905 10.4829 3.04497 10.497 2.99977 10.497C2.95456 10.497 2.91048 10.4829 2.87365 10.4567C2.83682 10.4305 2.80908 10.3935 2.79427 10.3508L2.40727 9.18977C2.23477 8.67077 1.82827 8.26427 1.30927 8.09177L0.149769 7.70627L0.148269 7.70627Z" fill="#FAFAFA"/>
</g>
<defs>
<clipPath id="clip0_13263_3173">
<rect width="24" height="24" fill="white" transform="translate(1.04907e-06 24) rotate(-90)"/>
</clipPath>
</defs>
</svg>
