<svg width="20" height="20" viewBox="0 0 20 20" fill="none" xmlns="http://www.w3.org/2000/svg">
<g clip-path="url(#clip0_13263_7493)">
<path d="M13.8917 10.9414C15.0333 11.7164 15.8333 12.7664 15.8333 14.1664V16.6664H19.1667V14.1664C19.1667 12.3497 16.1917 11.2747 13.8917 10.9414Z" fill="#3689FF"/>
<path d="M12.5 10.0007C14.3417 10.0007 15.8333 8.50898 15.8333 6.66732C15.8333 4.82565 14.3417 3.33398 12.5 3.33398C12.1083 3.33398 11.7417 3.41732 11.3917 3.53398C12.0833 4.39232 12.5 5.48398 12.5 6.66732C12.5 7.85065 12.0833 8.94232 11.3917 9.80065C11.7417 9.91732 12.1083 10.0007 12.5 10.0007Z" fill="#3689FF"/>
<path d="M7.5 10.0007C9.34166 10.0007 10.8333 8.50898 10.8333 6.66732C10.8333 4.82565 9.34166 3.33398 7.5 3.33398C5.65833 3.33398 4.16666 4.82565 4.16666 6.66732C4.16666 8.50898 5.65833 10.0007 7.5 10.0007ZM7.5 5.00065C8.41666 5.00065 9.16666 5.75065 9.16666 6.66732C9.16666 7.58398 8.41666 8.33398 7.5 8.33398C6.58333 8.33398 5.83333 7.58398 5.83333 6.66732C5.83333 5.75065 6.58333 5.00065 7.5 5.00065Z" fill="#3689FF"/>
<path d="M7.5 10.834C5.275 10.834 0.833332 11.9507 0.833332 14.1673V16.6673H14.1667V14.1673C14.1667 11.9507 9.725 10.834 7.5 10.834ZM12.5 15.0007H2.5V14.1757C2.66667 13.5757 5.25 12.5007 7.5 12.5007C9.75 12.5007 12.3333 13.5757 12.5 14.1673V15.0007Z" fill="#3689FF"/>
</g>
<defs>
<clipPath id="clip0_13263_7493">
<rect width="20" height="20" fill="white"/>
</clipPath>
</defs>
</svg>
