<svg width="20" height="20" viewBox="0 0 20 20" fill="none" xmlns="http://www.w3.org/2000/svg">
<g clip-path="url(#clip0_13263_7509)">
<path d="M13.1833 6.01667L12.35 6.35C12.175 6.21667 11.9917 6.10833 11.7917 6.025L11.6667 5.14167C11.65 5.05833 11.5833 5 11.5 5H10.1667C10.0833 5 10.0167 5.05833 10.0083 5.14167L9.88335 6.025C9.68335 6.10833 9.49168 6.21667 9.32501 6.35L8.49168 6.01667C8.41668 5.99167 8.32501 6.01667 8.29168 6.09167L7.62501 7.24167C7.58335 7.31667 7.60001 7.40833 7.66668 7.45833L8.37501 8.00833C8.35001 8.10833 8.33335 8.225 8.33335 8.33333C8.33335 8.44167 8.34168 8.55 8.35835 8.65833L7.65835 9.20833C7.59168 9.25833 7.57501 9.35 7.61668 9.41667L8.28335 10.575C8.32501 10.65 8.40835 10.675 8.49168 10.65L9.31668 10.3167C9.49168 10.45 9.67501 10.5583 9.88335 10.6417L10 11.525C10.0167 11.6083 10.0833 11.6667 10.1667 11.6667H11.5C11.5833 11.6667 11.65 11.6083 11.6667 11.525L11.7917 10.6417C11.9917 10.5583 12.1833 10.45 12.35 10.3167L13.175 10.65C13.25 10.6833 13.3417 10.65 13.375 10.575L14.0417 9.41667C14.0833 9.34167 14.0667 9.25833 14 9.20833L13.3083 8.65833C13.325 8.55 13.3333 8.44167 13.3333 8.33333C13.3333 8.21667 13.325 8.10833 13.3083 8.00833L14.0167 7.45833C14.0833 7.40833 14.1 7.31667 14.0583 7.24167L13.3917 6.09167C13.35 6.01667 13.2583 5.99167 13.1833 6.01667ZM10.8333 9.525C10.175 9.525 9.64168 8.99167 9.64168 8.33333C9.64168 7.675 10.175 7.14167 10.8333 7.14167C11.4917 7.14167 12.025 7.675 12.025 8.33333C12.025 8.99167 11.4917 9.525 10.8333 9.525Z" fill="#AC60CA"/>
<path d="M16.6167 7.55C16.2583 4.825 13.925 2.66667 11.175 2.50833C11.0583 2.5 10.95 2.5 10.8333 2.5C7.89167 2.5 5.475 4.675 5.06667 7.5L3.45834 10.4C3.11667 10.95 3.51667 11.6667 4.16667 11.6667H5V13.3333C5 14.25 5.75 15 6.66667 15H7.5V17.5H13.3333V13.6C15.5167 12.5583 16.9583 10.2 16.6167 7.55ZM12.4083 12.1917L11.6667 12.5417V15.8333H9.16667V13.3333H6.66667V10H5.58334L6.69167 8.05833C6.84167 5.88333 8.625 4.16667 10.8333 4.16667C13.1333 4.16667 15 6.03333 15 8.33333C15 10.075 13.925 11.5667 12.4083 12.1917Z" fill="#AC60CA"/>
</g>
<defs>
<clipPath id="clip0_13263_7509">
<rect width="20" height="20" fill="white"/>
</clipPath>
</defs>
</svg>
